<svg xmlns="http://www.w3.org/2000/svg" width="24" height="24" fill="none" viewBox="0 0 24 24">
    <path fill="#2196F3" d="M23 15a4 4 0 1 0-5.1 3.83A3.09 3.09 0 0 1 15 21h-.5a4.49 4.49 0 0 1-4.5-4.21l1.24-1.65C11.88 14.48 16 9.95 16 6.5v-2a2 2 0 0 0-2-2h-.07a2 2 0 1 0-.58 2c.05.004.1.004.15 0h.5v2c0 2.14-2.62 5.52-3.94 7H7.88C5.88 11.7 3 8.42 3 6.5v-2h.5c.05.004.1.004.15 0a2 2 0 1 0-.58-2H3a2 2 0 0 0-2 2v2c0 3.5 4.91 7.94 5.76 8.68L8 16.86A6.5 6.5 0 0 0 14.5 23h.5a5.09 5.09 0 0 0 5-4.12A4 4 0 0 0 23 15zm-4 2a2 2 0 1 1 0-4 2 2 0 0 1 0 4z"/>
</svg>
