<svg xmlns="http://www.w3.org/2000/svg" width="24" height="24" fill="none" viewBox="0 0 24 24">
    <path fill="#2196F3" d="M19.986 12.5a1.108 1.108 0 0 1-.236.35 1.114 1.114 0 0 1-.786.326c-.281 0-.536-.106-.732-.278l-.04-.035h-1.504v1.416a.819.819 0 0 1-.82.82H8.131a.819.819 0 0 1-.818-.82v-1.416H5.807a1.079 1.079 0 0 1-.226.169 1.11 1.11 0 0 1-1.542-1.463 1.113 1.113 0 0 1 1.768-.305h1.505V9.72c0-.453.367-.82.82-.82h7.737c.452 0 .818.367.818.82v1.543H18.193c.2-.193.471-.313.77-.313a1.113 1.113 0 0 1 1.023 1.55zM19.672 5.157a1.104 1.104 0 0 1-1.131.17 1.124 1.124 0 0 1-.348-.229h-1.505v1.417a.819.819 0 0 1-.82.819H8.132a.819.819 0 0 1-.818-.82V5.099H5.807a1.134 1.134 0 0 1-.385.244 1.097 1.097 0 0 1-.386.07 1.106 1.106 0 0 1-.944-.527 1.106 1.106 0 0 1 .3-1.493 1.091 1.091 0 0 1 .427-.182 1.107 1.107 0 0 1 .328-.018 1.105 1.105 0 0 1 .66.307h1.505V1.956c0-.452.367-.819.82-.819h7.737c.452 0 .818.367.818.819v1.543H18.193a1.101 1.101 0 0 1 1.241-.209 1.118 1.118 0 0 1 .642 1.009 1.114 1.114 0 0 1-.405.859zM19.885 20.45a1.097 1.097 0 0 1-.921.49 1.101 1.101 0 0 1-.771-.312h-1.505v1.416a.819.819 0 0 1-.82.819H8.132a.819.819 0 0 1-.818-.819v-1.416H5.807a1.134 1.134 0 0 1-.771.313c-.155 0-.301-.035-.435-.092a1.127 1.127 0 0 1-.31-.196 1.117 1.117 0 0 1-.368-.825 1.108 1.108 0 0 1 .47-.906 1.106 1.106 0 0 1 1.414.107h1.505v-1.544c0-.452.367-.818.82-.818h7.737c.452 0 .818.366.818.818v1.544H18.193a1.167 1.167 0 0 1 .23-.171 1.099 1.099 0 0 1 .968-.057 1.084 1.084 0 0 1 .28.169 1.12 1.12 0 0 1 .405.858 1.105 1.105 0 0 1-.191.622z"/>
</svg>
