<svg xmlns="http://www.w3.org/2000/svg" width="24" height="24" fill="none" viewBox="0 0 24 24">
    <path fill="#000" fill-rule="evenodd" d="M16.919 7.026s.216 2.275-.532 3.371c-.752 1.096-1.39.637-2.02.404-.637-.232-2.07-.813-2.912.748-.842 1.561.659 3.183 1.583 3.875.925.692 2.198 1.678 2.314 3.986.117 2.315-.348 3.87-2.314 4.22-1.965.348-3.272-1.451-3.327-3.92-.056-2.47-.183-4.408-.847-6.262-.665-1.86-1.047-2.874-1.124-4.263-.078-1.39 1.5-3.494 4.385-4.319 2.879-.824 4.5.216 4.8 2.16h-.006zM14.749.648c-1.157.974-.05 4.634 1.61 3.1 1.108-1.024-.149-4.335-1.61-3.1zm-2.735.858c-.709 1.312.753 3 1.561 1.628.631-1.074-.72-3.19-1.561-1.628zm-1.251.88c.426-.072.841.277.924.78.083.505-.194.975-.62 1.047-.426.072-.841-.277-.924-.78-.084-.504.193-.975.62-1.047zM9.24 3.504c.354-.06.698.233.77.648.072.415-.16.803-.51.864-.354.06-.697-.233-.77-.648-.071-.415.161-.803.51-.864zm-1.246 1.24c.35-.06.681.228.753.637.072.41-.155.786-.503.847-.35.061-.681-.227-.753-.636-.072-.41.155-.786.503-.847z" clip-rule="evenodd"/>
</svg>
